ffmpeg started on 2025-05-06 at 09:23:51
Report written to "D:\Convert\FFMetrics\reports\psnr_report-6.txt"
Log level: 32
Command line:
ffmpeg -hide_banner -nostdin -i "G:\\\xc0\xed\xe8\xec\xe5\\\xce\xed\xe3\xee\xe8\xed\xe3\xe8\\!_35_\xcb\xe5\xf2\xee_2024\\JamClub\\\xc1\xe0\xf1\xed\xff\\[JAM_CLUB]_The_Fable_03_[1080p][RUS][DUB]_HEVC.mkv" -i "G:\\\xc0\xed\xe8\xec\xe5\\\xce\xed\xe3\xee\xe8\xed\xe3\xe8\\!_35_\xcb\xe5\xf2\xee_2024\\JamClub\\\xc1\xe0\xf1\xed\xff\\[JAM_CLUB]_The_Fable_03_[1080p][RUS][DUB].mp4" -lavfi "[0:v]settb=AVTB,setpts=PTS-STARTPTS,format=pix_fmts=yuv420p10,fps=24000/1001,scale=1920:1080:flags=bicubic[main];[1:v]settb=AVTB,setpts=PTS-STARTPTS,format=pix_fmts=yuv420p,fps=24000/1001,scale=1920:1080:flags=bicubic[ref];[main][ref]psnr=eof_action=endall:stats_file='D\\:/Convert/FFMetrics/logs/psnr_logfile-6.txt'" -f null -
Input #0, matroska,webm, from 'G:\Аниме\Онгоинги\!_35_Лето_2024\JamClub\Басня\[JAM_CLUB]_The_Fable_03_[1080p][RUS][DUB]_HEVC.mkv':
  Metadata:
    COMPATIBLE_BRANDS: isomiso2avc1mp41
    MAJOR_BRAND     : isom
    MINOR_VERSION   : 512
    ENCODER         : Lavf61.7.100
  Duration: 00:23:14.37, start: -0.001000, bitrate: 1067 kb/s
  Stream #0:0: Video: hevc (Main 10), yuv420p10le(tv, bt709, progressive), 1920x1080 [SAR 1:1 DAR 16:9], 23.98 fps, 23.98 tbr, 1k tbn (default)
      Metadata:
        HANDLER_NAME    : VideoHandler
        VENDOR_ID       : [0][0][0][0]
        ENCODER         : Lavc61.19.100 libx265
        BPS             : 867945
        DURATION        : 00:23:14.225708333
        NUMBER_OF_FRAMES: 33428
        NUMBER_OF_BYTES : 151263870
        _STATISTICS_WRITING_APP: mkvpropedit v66.0.0 ('Josie') 64-bit
        _STATISTICS_WRITING_DATE_UTC: 2025-05-05 12:38:22
        _STATISTICS_TAGS: BPS DURATION NUMBER_OF_FRAMES NUMBER_OF_BYTES
  Stream #0:1(eng): Audio: aac (LC), 48000 Hz, stereo, fltp (default)
      Metadata:
        HANDLER_NAME    : SoundHandler
        VENDOR_ID       : [0][0][0][0]
        ENCODER         : Lavc61.19.100 aac
        BPS             : 195329
        DURATION        : 00:23:14.328000000
        NUMBER_OF_FRAMES: 65360
        NUMBER_OF_BYTES : 34044261
        _STATISTICS_WRITING_APP: mkvpropedit v66.0.0 ('Josie') 64-bit
        _STATISTICS_WRITING_DATE_UTC: 2025-05-05 12:38:22
        _STATISTICS_TAGS: BPS DURATION NUMBER_OF_FRAMES NUMBER_OF_BYTES
Input #1, mov,mp4,m4a,3gp,3g2,mj2, from 'G:\Аниме\Онгоинги\!_35_Лето_2024\JamClub\Басня\[JAM_CLUB]_The_Fable_03_[1080p][RUS][DUB].mp4':
  Metadata:
    major_brand     : isom
    minor_version   : 512
    compatible_brands: isomiso2avc1mp41
    encoder         : Lavf61.1.100
  Duration: 00:23:14.35, start: 0.000000, bitrate: 3778 kb/s
  Stream #1:0[0x1](und): Video: h264 (High) (avc1 / 0x31637661), yuv420p(progressive), 1920x1080, 3580 kb/s, 23.98 fps, 23.98 tbr, 90k tbn (default)
      Metadata:
        handler_name    : VideoHandler
        vendor_id       : [0][0][0][0]
  Stream #1:1[0x2](eng): Audio: aac (LC) (mp4a / 0x6134706D), 48000 Hz, stereo, fltp, 191 kb/s (default)
      Metadata:
        handler_name    : SoundHandler
        vendor_id       : [0][0][0][0]
Stream mapping:
  Stream #0:0 (hevc) -> settb:default
  Stream #1:0 (h264) -> settb:default
  psnr:default -> Stream #0:0 (wrapped_avframe)
  Stream #0:1 -> #0:1 (aac (native) -> pcm_s16le (native))
Output #0, null, to 'pipe:':
  Metadata:
    COMPATIBLE_BRANDS: isomiso2avc1mp41
    MAJOR_BRAND     : isom
    MINOR_VERSION   : 512
    encoder         : Lavf61.7.100
  Stream #0:0: Video: wrapped_avframe, yuv420p10le(tv, bt709, progressive), 1920x1080 [SAR 1:1 DAR 16:9], q=2-31, 200 kb/s, 23.98 fps, 23.98 tbn
      Metadata:
        encoder         : Lavc61.19.100 wrapped_avframe
  Stream #0:1(eng): Audio: pcm_s16le, 48000 Hz, stereo, s16, 1536 kb/s (default)
      Metadata:
        HANDLER_NAME    : SoundHandler
        VENDOR_ID       : [0][0][0][0]
        _STATISTICS_TAGS: BPS DURATION NUMBER_OF_FRAMES NUMBER_OF_BYTES
        BPS             : 195329
        DURATION        : 00:23:14.328000000
        NUMBER_OF_FRAMES: 65360
        NUMBER_OF_BYTES : 34044261
        _STATISTICS_WRITING_APP: mkvpropedit v66.0.0 ('Josie') 64-bit
        _STATISTICS_WRITING_DATE_UTC: 2025-05-05 12:38:22
        encoder         : Lavc61.19.100 pcm_s16le
frame=  119 fps=0.0 q=-0.0 size=N/A time=00:00:04.96 bitrate=N/A speed=9.51x    frame=  276 fps=267 q=-0.0 size=N/A time=00:00:11.51 bitrate=N/A speed=11.2x    frame=  464 fps=301 q=-0.0 size=N/A time=00:00:19.35 bitrate=N/A speed=12.5x    frame=  696 fps=338 q=-0.0 size=N/A time=00:00:29.02 bitrate=N/A speed=14.1x    frame=  916 fps=354 q=-0.0 size=N/A time=00:00:38.20 bitrate=N/A speed=14.8x    frame= 1125 fps=364 q=-0.0 size=N/A time=00:00:46.92 bitrate=N/A speed=15.2x    frame= 1332 fps=368 q=-0.0 size=N/A time=00:00:55.55 bitrate=N/A speed=15.3x    frame= 1540 fps=372 q=-0.0 size=N/A time=00:01:04.23 bitrate=N/A speed=15.5x    frame= 1795 fps=385 q=-0.0 size=N/A time=00:01:14.86 bitrate=N/A speed=16.1x    frame= 2024 fps=391 q=-0.0 size=N/A time=00:01:24.41 bitrate=N/A speed=16.3x    frame= 2258 fps=397 q=-0.0 size=N/A time=00:01:34.17 bitrate=N/A speed=16.6x    frame= 2497 fps=402 q=-0.0 size=N/A time=00:01:44.14 bitrate=N/A speed=16.8x    frame= 2734 fps=407 q=-0.0 size=N/A time=00:01:54.03 bitrate=N/A speed=  17x    frame= 2997 fps=414 q=-0.0 size=N/A time=00:02:04.99 bitrate=N/A speed=17.3x    frame= 3236 fps=417 q=-0.0 size=N/A time=00:02:14.96 bitrate=N/A speed=17.4x    frame= 3483 fps=421 q=-0.0 size=N/A time=00:02:25.27 bitrate=N/A speed=17.6x    frame= 3715 fps=423 q=-0.0 size=N/A time=00:02:34.94 bitrate=N/A speed=17.6x    frame= 3963 fps=426 q=-0.0 size=N/A time=00:02:45.29 bitrate=N/A speed=17.8x    frame= 4215 fps=430 q=-0.0 size=N/A time=00:02:55.80 bitrate=N/A speed=17.9x    frame= 4481 fps=434 q=-0.0 size=N/A time=00:03:06.89 bitrate=N/A speed=18.1x    frame= 4735 fps=437 q=-0.0 size=N/A time=00:03:17.48 bitrate=N/A speed=18.2x    frame= 4962 fps=437 q=-0.0 size=N/A time=00:03:26.95 bitrate=N/A speed=18.2x    frame= 5215 fps=439 q=-0.0 size=N/A time=00:03:37.50 bitrate=N/A speed=18.3x    frame= 5487 fps=443 q=-0.0 size=N/A time=00:03:48.85 bitrate=N/A speed=18.5x    frame= 5740 fps=445 q=-0.0 size=N/A time=00:03:59.40 bitrate=N/A speed=18.6x    frame= 6004 fps=447 q=-0.0 size=N/A time=00:04:10.41 bitrate=N/A speed=18.6x    frame= 6171 fps=443 q=-0.0 size=N/A time=00:04:17.38 bitrate=N/A speed=18.5x    frame= 6359 fps=440 q=-0.0 size=N/A time=00:04:25.22 bitrate=N/A speed=18.3x    frame= 6526 fps=436 q=-0.0 size=N/A time=00:04:32.18 bitrate=N/A speed=18.2x    frame= 6782 fps=438 q=-0.0 size=N/A time=00:04:42.86 bitrate=N/A speed=18.3x    frame= 7026 fps=439 q=-0.0 size=N/A time=00:04:53.04 bitrate=N/A speed=18.3x    frame= 7260 fps=439 q=-0.0 size=N/A time=00:05:02.80 bitrate=N/A speed=18.3x    frame= 7517 fps=441 q=-0.0 size=N/A time=00:05:13.52 bitrate=N/A speed=18.4x    frame= 7781 fps=443 q=-0.0 size=N/A time=00:05:24.53 bitrate=N/A speed=18.5x    frame= 8049 fps=445 q=-0.0 size=N/A time=00:05:35.71 bitrate=N/A speed=18.6x    frame= 8286 fps=446 q=-0.0 size=N/A time=00:05:45.59 bitrate=N/A speed=18.6x    frame= 8534 fps=446 q=-0.0 size=N/A time=00:05:55.93 bitrate=N/A speed=18.6x    frame= 8766 fps=447 q=-0.0 size=N/A time=00:06:05.61 bitrate=N/A speed=18.6x    frame= 9022 fps=448 q=-0.0 size=N/A time=00:06:16.29 bitrate=N/A speed=18.7x    frame= 9261 fps=448 q=-0.0 size=N/A time=00:06:26.26 bitrate=N/A speed=18.7x    frame= 9493 fps=448 q=-0.0 size=N/A time=00:06:35.93 bitrate=N/A speed=18.7x    frame= 9751 fps=449 q=-0.0 size=N/A time=00:06:46.69 bitrate=N/A speed=18.7x    frame= 9967 fps=449 q=-0.0 size=N/A time=00:06:55.70 bitrate=N/A speed=18.7x    frame=10210 fps=449 q=-0.0 size=N/A time=00:07:05.84 bitrate=N/A speed=18.7x    frame=10446 fps=449 q=-0.0 size=N/A time=00:07:15.68 bitrate=N/A speed=18.7x    frame=10665 fps=449 q=-0.0 size=N/A time=00:07:24.81 bitrate=N/A speed=18.7x    frame=10887 fps=449 q=-0.0 size=N/A time=00:07:34.07 bitrate=N/A speed=18.7x    frame=11143 fps=450 q=-0.0 size=N/A time=00:07:44.75 bitrate=N/A speed=18.8x    frame=11403 fps=451 q=-0.0 size=N/A time=00:07:55.60 bitrate=N/A speed=18.8x    frame=11653 fps=451 q=-0.0 size=N/A time=00:08:06.02 bitrate=N/A speed=18.8x    frame=11911 fps=452 q=-0.0 size=N/A time=00:08:16.78 bitrate=N/A speed=18.9x    frame=12122 fps=452 q=-0.0 size=N/A time=00:08:25.58 bitrate=N/A speed=18.8x    frame=12297 fps=449 q=-0.0 size=N/A time=00:08:32.88 bitrate=N/A speed=18.7x    frame=12465 fps=447 q=-0.0 size=N/A time=00:08:39.89 bitrate=N/A speed=18.7x    frame=12693 fps=447 q=-0.0 size=N/A time=00:08:49.40 bitrate=N/A speed=18.6x    frame=12927 fps=447 q=-0.0 size=N/A time=00:08:59.16 bitrate=N/A speed=18.7x    frame=13154 fps=447 q=-0.0 size=N/A time=00:09:08.63 bitrate=N/A speed=18.6x    frame=13394 fps=447 q=-0.0 size=N/A time=00:09:18.64 bitrate=N/A speed=18.7x    frame=13612 fps=447 q=-0.0 size=N/A time=00:09:27.73 bitrate=N/A speed=18.6x    frame=13823 fps=446 q=-0.0 size=N/A time=00:09:36.53 bitrate=N/A speed=18.6x    frame=14074 fps=447 q=-0.0 size=N/A time=00:09:47.00 bitrate=N/A speed=18.6x    frame=14321 fps=447 q=-0.0 size=N/A time=00:09:57.30 bitrate=N/A speed=18.7x    frame=14575 fps=448 q=-0.0 size=N/A time=00:10:07.89 bitrate=N/A speed=18.7x    frame=14848 fps=449 q=-0.0 size=N/A time=00:10:19.28 bitrate=N/A speed=18.7x    frame=15112 fps=450 q=-0.0 size=N/A time=00:10:30.29 bitrate=N/A speed=18.8x    frame=15395 fps=452 q=-0.0 size=N/A time=00:10:42.09 bitrate=N/A speed=18.8x    frame=15665 fps=453 q=-0.0 size=N/A time=00:10:53.36 bitrate=N/A speed=18.9x    frame=15923 fps=454 q=-0.0 size=N/A time=00:11:04.12 bitrate=N/A speed=18.9x    frame=16179 fps=454 q=-0.0 size=N/A time=00:11:14.79 bitrate=N/A speed=18.9x    frame=16413 fps=454 q=-0.0 size=N/A time=00:11:24.55 bitrate=N/A speed=18.9x    frame=16665 fps=455 q=-0.0 size=N/A time=00:11:35.06 bitrate=N/A speed=  19x    frame=16924 fps=455 q=-0.0 size=N/A time=00:11:45.87 bitrate=N/A speed=  19x    frame=17174 fps=456 q=-0.0 size=N/A time=00:11:56.29 bitrate=N/A speed=  19x    frame=17431 fps=456 q=-0.0 size=N/A time=00:12:07.01 bitrate=N/A speed=  19x    frame=17679 fps=457 q=-0.0 size=N/A time=00:12:17.36 bitrate=N/A speed=  19x    frame=17955 fps=458 q=-0.0 size=N/A time=00:12:28.87 bitrate=N/A speed=19.1x    frame=18229 fps=459 q=-0.0 size=N/A time=00:12:40.30 bitrate=N/A speed=19.1x    frame=18515 fps=460 q=-0.0 size=N/A time=00:12:52.22 bitrate=N/A speed=19.2x    frame=18779 fps=461 q=-0.0 size=N/A time=00:13:03.24 bitrate=N/A speed=19.2x    frame=19062 fps=462 q=-0.0 size=N/A time=00:13:15.04 bitrate=N/A speed=19.2x    frame=19315 fps=462 q=-0.0 size=N/A time=00:13:25.59 bitrate=N/A speed=19.3x    frame=19575 fps=462 q=-0.0 size=N/A time=00:13:36.44 bitrate=N/A speed=19.3x    frame=19803 fps=462 q=-0.0 size=N/A time=00:13:45.95 bitrate=N/A speed=19.3x    frame=20042 fps=462 q=-0.0 size=N/A time=00:13:55.91 bitrate=N/A speed=19.3x    frame=20278 fps=462 q=-0.0 size=N/A time=00:14:05.76 bitrate=N/A speed=19.3x    frame=20534 fps=463 q=-0.0 size=N/A time=00:14:16.43 bitrate=N/A speed=19.3x    frame=20779 fps=463 q=-0.0 size=N/A time=00:14:26.65 bitrate=N/A speed=19.3x    frame=21025 fps=463 q=-0.0 size=N/A time=00:14:36.91 bitrate=N/A speed=19.3x    frame=21261 fps=463 q=-0.0 size=N/A time=00:14:46.76 bitrate=N/A speed=19.3x    frame=21533 fps=464 q=-0.0 size=N/A time=00:14:58.10 bitrate=N/A speed=19.3x    frame=21794 fps=464 q=-0.0 size=N/A time=00:15:08.99 bitrate=N/A speed=19.4x    frame=22052 fps=464 q=-0.0 size=N/A time=00:15:19.75 bitrate=N/A speed=19.4x    frame=22326 fps=465 q=-0.0 size=N/A time=00:15:31.18 bitrate=N/A speed=19.4x    frame=22572 fps=465 q=-0.0 size=N/A time=00:15:41.44 bitrate=N/A speed=19.4x    frame=22811 fps=465 q=-0.0 size=N/A time=00:15:51.40 bitrate=N/A speed=19.4x    frame=23074 fps=466 q=-0.0 size=N/A time=00:16:02.41 bitrate=N/A speed=19.4x    frame=23348 fps=466 q=-0.0 size=N/A time=00:16:13.80 bitrate=N/A speed=19.5x    frame=23599 fps=467 q=-0.0 size=N/A time=00:16:24.27 bitrate=N/A speed=19.5x    frame=23837 fps=467 q=-0.0 size=N/A time=00:16:34.20 bitrate=N/A speed=19.5x    frame=24108 fps=467 q=-0.0 size=N/A time=00:16:45.50 bitrate=N/A speed=19.5x    frame=24348 fps=467 q=-0.0 size=N/A time=00:16:55.51 bitrate=N/A speed=19.5x    frame=24631 fps=468 q=-0.0 size=N/A time=00:17:07.31 bitrate=N/A speed=19.5x    frame=24901 fps=468 q=-0.0 size=N/A time=00:17:18.57 bitrate=N/A speed=19.5x    frame=25154 fps=469 q=-0.0 size=N/A time=00:17:29.13 bitrate=N/A speed=19.5x    frame=25414 fps=469 q=-0.0 size=N/A time=00:17:39.97 bitrate=N/A speed=19.6x    frame=25673 fps=469 q=-0.0 size=N/A time=00:17:50.77 bitrate=N/A speed=19.6x    frame=25930 fps=470 q=-0.0 size=N/A time=00:18:01.49 bitrate=N/A speed=19.6x    frame=26181 fps=470 q=-0.0 size=N/A time=00:18:11.96 bitrate=N/A speed=19.6x    frame=26444 fps=470 q=-0.0 size=N/A time=00:18:22.93 bitrate=N/A speed=19.6x    frame=26722 fps=471 q=-0.0 size=N/A time=00:18:34.53 bitrate=N/A speed=19.6x    frame=26988 fps=471 q=-0.0 size=N/A time=00:18:45.62 bitrate=N/A speed=19.7x    frame=27268 fps=472 q=-0.0 size=N/A time=00:18:57.30 bitrate=N/A speed=19.7x    frame=27542 fps=472 q=-0.0 size=N/A time=00:19:08.73 bitrate=N/A speed=19.7x    frame=27813 fps=473 q=-0.0 size=N/A time=00:19:20.03 bitrate=N/A speed=19.7x    frame=28081 fps=473 q=-0.0 size=N/A time=00:19:31.21 bitrate=N/A speed=19.7x    frame=28352 fps=474 q=-0.0 size=N/A time=00:19:42.51 bitrate=N/A speed=19.8x    frame=28634 fps=474 q=-0.0 size=N/A time=00:19:54.27 bitrate=N/A speed=19.8x    frame=28886 fps=474 q=-0.0 size=N/A time=00:20:04.78 bitrate=N/A speed=19.8x    frame=29147 fps=475 q=-0.0 size=N/A time=00:20:15.67 bitrate=N/A speed=19.8x    frame=29397 fps=475 q=-0.0 size=N/A time=00:20:26.09 bitrate=N/A speed=19.8x    frame=29638 fps=475 q=-0.0 size=N/A time=00:20:36.15 bitrate=N/A speed=19.8x    frame=29907 fps=475 q=-0.0 size=N/A time=00:20:47.37 bitrate=N/A speed=19.8x    frame=30175 fps=475 q=-0.0 size=N/A time=00:20:58.54 bitrate=N/A speed=19.8x    frame=30455 fps=476 q=-0.0 size=N/A time=00:21:10.22 bitrate=N/A speed=19.8x    frame=30727 fps=476 q=-0.0 size=N/A time=00:21:21.57 bitrate=N/A speed=19.9x    frame=31000 fps=477 q=-0.0 size=N/A time=00:21:32.95 bitrate=N/A speed=19.9x    frame=31208 fps=476 q=-0.0 size=N/A time=00:21:41.63 bitrate=N/A speed=19.9x    frame=31382 fps=475 q=-0.0 size=N/A time=00:21:48.89 bitrate=N/A speed=19.8x    frame=31538 fps=474 q=-0.0 size=N/A time=00:21:55.39 bitrate=N/A speed=19.8x    frame=31680 fps=472 q=-0.0 size=N/A time=00:22:01.32 bitrate=N/A speed=19.7x    frame=31843 fps=471 q=-0.0 size=N/A time=00:22:08.11 bitrate=N/A speed=19.6x    frame=32012 fps=470 q=-0.0 size=N/A time=00:22:15.16 bitrate=N/A speed=19.6x    frame=32173 fps=469 q=-0.0 size=N/A time=00:22:21.88 bitrate=N/A speed=19.5x    frame=32312 fps=467 q=-0.0 size=N/A time=00:22:27.67 bitrate=N/A speed=19.5x    frame=32452 fps=466 q=-0.0 size=N/A time=00:22:33.51 bitrate=N/A speed=19.4x    frame=32598 fps=464 q=-0.0 size=N/A time=00:22:39.60 bitrate=N/A speed=19.4x    frame=32743 fps=463 q=-0.0 size=N/A time=00:22:45.65 bitrate=N/A speed=19.3x    frame=32947 fps=463 q=-0.0 size=N/A time=00:22:54.16 bitrate=N/A speed=19.3x    frame=33161 fps=462 q=-0.0 size=N/A time=00:23:03.09 bitrate=N/A speed=19.3x    frame=33376 fps=462 q=-0.0 size=N/A time=00:23:12.05 bitrate=N/A speed=19.3x    [Parsed_psnr_10 @ 000001fc5a130040] PSNR y:48.254859 u:50.951182 v:51.272961 average:49.015007 min:37.687346 max:inf
[out#0/null @ 000001fc4da906c0] video:14364KiB audio:261440KiB subtitle:0KiB other streams:0KiB global headers:0KiB muxing overhead: unknown
frame=33428 fps=462 q=-0.0 Lsize=N/A time=00:23:14.22 bitrate=N/A speed=19.3x    
